#model information for object 0

#mtl file
mtllib neon.mtl
usemtl neon0

#vertex positions
v 0.000000 0.000000 0.000000 1.000000 1.000000 1.000000
v 0.000000 0.000000 0.000000 1.000000 1.000000 1.000000
v 0.000000 0.000000 0.000000 1.000000 1.000000 1.000000
v 0.000000 0.000000 0.000000 1.000000 1.000000 1.000000
v 0.000000 0.000000 0.000000 1.000000 1.000000 1.000000
v 0.385172 1.423813 0.462697 1.000000 1.000000 1.000000
v 0.453429 1.167869 -0.149272 1.000000 1.000000 1.000000
v -0.098764 1.458721 -0.670601 1.000000 1.000000 1.000000
v -0.372197 1.193762 -0.057237 1.000000 1.000000 1.000000
v -0.186918 1.296287 0.473947 1.000000 1.000000 1.000000
v 0.385172 1.423813 0.462697 1.000000 1.000000 1.000000
v 0.453429 1.167869 -0.149272 1.000000 1.000000 1.000000
v -0.098764 1.458721 -0.670601 1.000000 1.000000 1.000000
v -0.372197 1.193762 -0.057237 1.000000 1.000000 1.000000
v -0.186918 1.296287 0.473947 1.000000 1.000000 1.000000
v 0.753592 2.672766 0.899710 1.000000 1.000000 1.000000
v 0.839604 2.382615 -0.450854 1.000000 1.000000 1.000000
v -0.244074 2.833913 -1.218728 1.000000 1.000000 1.000000
v -0.973688 2.531644 -0.219856 1.000000 1.000000 1.000000
v -0.387502 2.336672 0.833230 1.000000 1.000000 1.000000
v 0.753592 2.672766 0.899710 1.000000 1.000000 1.000000
v 0.839604 2.382615 -0.450854 1.000000 1.000000 1.000000
v -0.244074 2.833913 -1.218728 1.000000 1.000000 1.000000
v -0.973688 2.531644 -0.219856 1.000000 1.000000 1.000000
v -0.387502 2.336672 0.833230 1.000000 1.000000 1.000000
v 1.160955 3.721417 1.277333 1.000000 1.000000 1.000000
v 1.458039 3.690406 -0.687434 1.000000 1.000000 1.000000
v -0.343093 4.336487 -1.587254 1.000000 1.000000 1.000000
v -1.594080 3.888535 -0.286905 1.000000 1.000000 1.000000
v -0.718908 3.732201 1.383516 1.000000 1.000000 1.000000
v 1.160955 3.721417 1.277333 1.000000 1.000000 1.000000
v 1.458039 3.690406 -0.687434 1.000000 1.000000 1.000000
v -0.343093 4.336487 -1.587254 1.000000 1.000000 1.000000
v -1.594080 3.888535 -0.286905 1.000000 1.000000 1.000000
v -0.718908 3.732201 1.383516 1.000000 1.000000 1.000000
v 1.314728 5.099920 1.909534 1.000000 1.000000 1.000000
v 1.852380 4.809019 -0.781225 1.000000 1.000000 1.000000
v -0.491651 5.440219 -2.115488 1.000000 1.000000 1.000000
v -2.288783 5.136171 -0.489057 1.000000 1.000000 1.000000
v -1.052811 4.919021 2.052168 1.000000 1.000000 1.000000
v 1.314728 5.099920 1.909534 1.000000 1.000000 1.000000
v 1.852380 4.809019 -0.781225 1.000000 1.000000 1.000000
v -0.491651 5.440219 -2.115488 1.000000 1.000000 1.000000
v -2.288783 5.136171 -0.489057 1.000000 1.000000 1.000000
v -1.052811 4.919021 2.052168 1.000000 1.000000 1.000000
v 1.644918 6.066810 2.555259 1.000000 1.000000 1.000000
v 2.526587 5.963452 -0.767603 1.000000 1.000000 1.000000
v -0.438435 6.893127 -2.522881 1.000000 1.000000 1.000000
v -3.107561 6.494324 -0.671618 1.000000 1.000000 1.000000
v -1.621490 5.802497 2.724167 1.000000 1.000000 1.000000
v 1.644918 6.066810 2.555259 1.000000 1.000000 1.000000
v 2.526587 5.963452 -0.767603 1.000000 1.000000 1.000000
v -0.438435 6.893127 -2.522881 1.000000 1.000000 1.000000
v -3.107561 6.494324 -0.671618 1.000000 1.000000 1.000000
v -1.621490 5.802497 2.724167 1.000000 1.000000 1.000000
v 1.840341 6.903376 3.551478 1.000000 1.000000 1.000000
v 3.151088 7.147173 -0.501343 1.000000 1.000000 1.000000
v -0.493617 8.337506 -3.041634 1.000000 1.000000 1.000000
v -3.955094 7.749636 -1.087283 1.000000 1.000000 1.000000
v -2.478379 6.569327 3.400109 1.000000 1.000000 1.000000
v 1.840341 6.903376 3.551478 1.000000 1.000000 1.000000
v 3.151088 7.147173 -0.501343 1.000000 1.000000 1.000000
v -0.493617 8.337506 -3.041634 1.000000 1.000000 1.000000
v -3.955094 7.749636 -1.087283 1.000000 1.000000 1.000000
v -2.478379 6.569327 3.400109 1.000000 1.000000 1.000000
v 2.030316 7.829560 4.693181 1.000000 1.000000 1.000000
v 4.017703 8.042237 -0.366444 1.000000 1.000000 1.000000
v -0.335359 9.428748 -3.819078 1.000000 1.000000 1.000000
v -4.945271 8.619235 -1.545190 1.000000 1.000000 1.000000
v -3.479520 7.494752 4.278119 1.000000 1.000000 1.000000
v 2.030316 7.829560 4.693181 1.000000 1.000000 1.000000
v 4.017703 8.042237 -0.366444 1.000000 1.000000 1.000000
v -0.335359 9.428748 -3.819078 1.000000 1.000000 1.000000
v -4.945271 8.619235 -1.545190 1.000000 1.000000 1.000000
v -3.479520 7.494752 4.278119 1.000000 1.000000 1.000000
v 2.269938 8.495881 6.109935 1.000000 1.000000 1.000000
v 5.052332 8.796610 -0.360313 1.000000 1.000000 1.000000
v -0.155314 10.405910 -4.671483 1.000000 1.000000 1.000000
v -6.137770 9.446668 -1.952866 1.000000 1.000000 1.000000
v -4.435005 7.716161 5.184666 1.000000 1.000000 1.000000
v 0.000000 0.000000 0.000000 1.000000 1.000000 1.000000
v 0.000000 0.000000 0.000000 1.000000 1.000000 1.000000
v 0.000000 0.000000 0.000000 1.000000 1.000000 1.000000
v 0.000000 0.000000 0.000000 1.000000 1.000000 1.000000
v 0.000000 0.000000 0.000000 1.000000 1.000000 1.000000
v 0.385172 1.423813 0.462697 1.000000 1.000000 1.000000
v 0.453429 1.167869 -0.149272 1.000000 1.000000 1.000000
v -0.098764 1.458721 -0.670601 1.000000 1.000000 1.000000
v -0.372197 1.193762 -0.057237 1.000000 1.000000 1.000000
v -0.186918 1.296287 0.473947 1.000000 1.000000 1.000000
v 0.385172 1.423813 0.462697 1.000000 1.000000 1.000000
v 0.453429 1.167869 -0.149272 1.000000 1.000000 1.000000
v -0.098764 1.458721 -0.670601 1.000000 1.000000 1.000000
v -0.372197 1.193762 -0.057237 1.000000 1.000000 1.000000
v -0.186918 1.296287 0.473947 1.000000 1.000000 1.000000
v 0.753592 2.672766 0.899710 1.000000 1.000000 1.000000
v 0.839604 2.382615 -0.450854 1.000000 1.000000 1.000000
v -0.244074 2.833913 -1.218728 1.000000 1.000000 1.000000
v -0.973688 2.531644 -0.219856 1.000000 1.000000 1.000000
v -0.387502 2.336672 0.833230 1.000000 1.000000 1.000000
v 0.753592 2.672766 0.899710 1.000000 1.000000 1.000000
v 0.839604 2.382615 -0.450854 1.000000 1.000000 1.000000
v -0.244074 2.833913 -1.218728 1.000000 1.000000 1.000000
v -0.973688 2.531644 -0.219856 1.000000 1.000000 1.000000
v -0.387502 2.336672 0.833230 1.000000 1.000000 1.000000
v 1.160955 3.721417 1.277333 1.000000 1.000000 1.000000
v 1.458039 3.690406 -0.687434 1.000000 1.000000 1.000000
v -0.343093 4.336487 -1.587254 1.000000 1.000000 1.000000
v -1.594080 3.888535 -0.286905 1.000000 1.000000 1.000000
v -0.718908 3.732201 1.383516 1.000000 1.000000 1.000000
v 1.160955 3.721417 1.277333 1.000000 1.000000 1.000000
v 1.458039 3.690406 -0.687434 1.000000 1.000000 1.000000
v -0.343093 4.336487 -1.587254 1.000000 1.000000 1.000000
v -1.594080 3.888535 -0.286905 1.000000 1.000000 1.000000
v -0.718908 3.732201 1.383516 1.000000 1.000000 1.000000
v 1.314728 5.099920 1.909534 1.000000 1.000000 1.000000
v 1.852380 4.809019 -0.781225 1.000000 1.000000 1.000000
v -0.491651 5.440219 -2.115488 1.000000 1.000000 1.000000
v -2.288783 5.136171 -0.489057 1.000000 1.000000 1.000000
v -1.052811 4.919021 2.052168 1.000000 1.000000 1.000000
v 1.314728 5.099920 1.909534 1.000000 1.000000 1.000000
v 1.852380 4.809019 -0.781225 1.000000 1.000000 1.000000
v -0.491651 5.440219 -2.115488 1.000000 1.000000 1.000000
v -2.288783 5.136171 -0.489057 1.000000 1.000000 1.000000
v -1.052811 4.919021 2.052168 1.000000 1.000000 1.000000
v 1.644918 6.066810 2.555259 1.000000 1.000000 1.000000
v 2.526587 5.963452 -0.767603 1.000000 1.000000 1.000000
v -0.438435 6.893127 -2.522881 1.000000 1.000000 1.000000
v -3.107561 6.494324 -0.671618 1.000000 1.000000 1.000000
v -1.621490 5.802497 2.724167 1.000000 1.000000 1.000000
v 1.644918 6.066810 2.555259 1.000000 1.000000 1.000000
v 2.526587 5.963452 -0.767603 1.000000 1.000000 1.000000
v -0.438435 6.893127 -2.522881 1.000000 1.000000 1.000000
v -3.107561 6.494324 -0.671618 1.000000 1.000000 1.000000
v -1.621490 5.802497 2.724167 1.000000 1.000000 1.000000
v 1.840341 6.903376 3.551478 1.000000 1.000000 1.000000
v 3.151088 7.147173 -0.501343 1.000000 1.000000 1.000000
v -0.493617 8.337506 -3.041634 1.000000 1.000000 1.000000
v -3.955094 7.749636 -1.087283 1.000000 1.000000 1.000000
v -2.478379 6.569327 3.400109 1.000000 1.000000 1.000000
v 1.840341 6.903376 3.551478 1.000000 1.000000 1.000000
v 3.151088 7.147173 -0.501343 1.000000 1.000000 1.000000
v -0.493617 8.337506 -3.041634 1.000000 1.000000 1.000000
v -3.955094 7.749636 -1.087283 1.000000 1.000000 1.000000
v -2.478379 6.569327 3.400109 1.000000 1.000000 1.000000
v 2.030316 7.829560 4.693181 1.000000 1.000000 1.000000
v 4.017703 8.042237 -0.366444 1.000000 1.000000 1.000000
v -0.335359 9.428748 -3.819078 1.000000 1.000000 1.000000
v -4.945271 8.619235 -1.545190 1.000000 1.000000 1.000000
v -3.479520 7.494752 4.278119 1.000000 1.000000 1.000000
v 2.030316 7.829560 4.693181 1.000000 1.000000 1.000000
v 4.017703 8.042237 -0.366444 1.000000 1.000000 1.000000
v -0.335359 9.428748 -3.819078 1.000000 1.000000 1.000000
v -4.945271 8.619235 -1.545190 1.000000 1.000000 1.000000
v -3.479520 7.494752 4.278119 1.000000 1.000000 1.000000
v 2.269938 8.495881 6.109935 1.000000 1.000000 1.000000
v 5.052332 8.796610 -0.360313 1.000000 1.000000 1.000000
v -0.155314 10.405910 -4.671483 1.000000 1.000000 1.000000
v -6.137770 9.446668 -1.952866 1.000000 1.000000 1.000000
v -4.435005 7.716161 5.184666 1.000000 1.000000 1.000000

#texture UVs
vt 0.500000 1.000000
vt 0.500000 1.000000
vt 0.500000 1.000000
vt 0.500000 1.000000
vt 0.500000 1.000000
vt 0.000000 0.000000
vt 0.000000 0.000000
vt 0.000000 0.000000
vt 0.000000 0.000000
vt 0.000000 0.000000
vt 0.000000 0.000000
vt 0.000000 0.000000
vt 0.000000 0.000000
vt 0.000000 0.000000
vt 0.000000 0.000000
vt 0.142857 0.000000
vt 0.142857 0.000000
vt 0.142857 0.000000
vt 0.142857 0.000000
vt 0.142857 0.000000
vt 0.142857 0.000000
vt 0.142857 0.000000
vt 0.142857 0.000000
vt 0.142857 0.000000
vt 0.142857 0.000000
vt 0.285714 0.000000
vt 0.285714 0.000000
vt 0.285714 0.000000
vt 0.285714 0.000000
vt 0.285714 0.000000
vt 0.285714 0.000000
vt 0.285714 0.000000
vt 0.285714 0.000000
vt 0.285714 0.000000
vt 0.285714 0.000000
vt 0.428571 0.000000
vt 0.428571 0.000000
vt 0.428571 0.000000
vt 0.428571 0.000000
vt 0.428571 0.000000
vt 0.428571 0.000000
vt 0.428571 0.000000
vt 0.428571 0.000000
vt 0.428571 0.000000
vt 0.428571 0.000000
vt 0.571429 0.000000
vt 0.571429 0.000000
vt 0.571429 0.000000
vt 0.571429 0.000000
vt 0.571429 0.000000
vt 0.571429 0.000000
vt 0.571429 0.000000
vt 0.571429 0.000000
vt 0.571429 0.000000
vt 0.571429 0.000000
vt 0.714286 0.000000
vt 0.714286 0.000000
vt 0.714286 0.000000
vt 0.714286 0.000000
vt 0.714286 0.000000
vt 0.714286 0.000000
vt 0.714286 0.000000
vt 0.714286 0.000000
vt 0.714286 0.000000
vt 0.714286 0.000000
vt 0.857143 0.000000
vt 0.857143 0.000000
vt 0.857143 0.000000
vt 0.857143 0.000000
vt 0.857143 0.000000
vt 0.857143 0.000000
vt 0.857143 0.000000
vt 0.857143 0.000000
vt 0.857143 0.000000
vt 0.857143 0.000000
vt 1.000000 0.000000
vt 1.000000 0.000000
vt 1.000000 0.000000
vt 1.000000 0.000000
vt 1.000000 0.000000
vt 0.500000 1.000000
vt 0.500000 1.000000
vt 0.500000 1.000000
vt 0.500000 1.000000
vt 0.500000 1.000000
vt 0.000000 0.000000
vt 0.000000 0.000000
vt 0.000000 0.000000
vt 0.000000 0.000000
vt 0.000000 0.000000
vt 0.000000 0.000000
vt 0.000000 0.000000
vt 0.000000 0.000000
vt 0.000000 0.000000
vt 0.000000 0.000000
vt 0.142857 0.000000
vt 0.142857 0.000000
vt 0.142857 0.000000
vt 0.142857 0.000000
vt 0.142857 0.000000
vt 0.142857 0.000000
vt 0.142857 0.000000
vt 0.142857 0.000000
vt 0.142857 0.000000
vt 0.142857 0.000000
vt 0.285714 0.000000
vt 0.285714 0.000000
vt 0.285714 0.000000
vt 0.285714 0.000000
vt 0.285714 0.000000
vt 0.285714 0.000000
vt 0.285714 0.000000
vt 0.285714 0.000000
vt 0.285714 0.000000
vt 0.285714 0.000000
vt 0.428571 0.000000
vt 0.428571 0.000000
vt 0.428571 0.000000
vt 0.428571 0.000000
vt 0.428571 0.000000
vt 0.428571 0.000000
vt 0.428571 0.000000
vt 0.428571 0.000000
vt 0.428571 0.000000
vt 0.428571 0.000000
vt 0.571429 0.000000
vt 0.571429 0.000000
vt 0.571429 0.000000
vt 0.571429 0.000000
vt 0.571429 0.000000
vt 0.571429 0.000000
vt 0.571429 0.000000
vt 0.571429 0.000000
vt 0.571429 0.000000
vt 0.571429 0.000000
vt 0.714286 0.000000
vt 0.714286 0.000000
vt 0.714286 0.000000
vt 0.714286 0.000000
vt 0.714286 0.000000
vt 0.714286 0.000000
vt 0.714286 0.000000
vt 0.714286 0.000000
vt 0.714286 0.000000
vt 0.714286 0.000000
vt 0.857143 0.000000
vt 0.857143 0.000000
vt 0.857143 0.000000
vt 0.857143 0.000000
vt 0.857143 0.000000
vt 0.857143 0.000000
vt 0.857143 0.000000
vt 0.857143 0.000000
vt 0.857143 0.000000
vt 0.857143 0.000000
vt 1.000000 0.000000
vt 1.000000 0.000000
vt 1.000000 0.000000
vt 1.000000 0.000000
vt 1.000000 0.000000

#normals
vn 0.671147 -0.107130 0.733542
vn 0.974654 -0.214361 -0.064030
vn 0.061284 -0.075964 -0.995226
vn -0.886510 -0.200450 -0.417037
vn -0.339698 -0.026356 0.940165
vn 0.000000 0.000000 0.000000
vn 0.000000 0.000000 0.000000
vn 0.000000 0.000000 0.000000
vn 0.000000 0.000000 0.000000
vn 0.000000 0.000000 0.000000
vn 0.713415 0.034451 -0.699894
vn -0.801831 0.371169 0.468295
vn 0.813726 0.287364 0.505244
vn -0.468584 -0.104035 0.877272
vn -0.358433 -0.365727 0.858935
vn 0.713415 0.034451 -0.699894
vn -0.801831 0.371169 0.468295
vn 0.813726 0.287364 0.505244
vn -0.468584 -0.104035 0.877272
vn -0.358433 -0.365727 0.858935
vn 0.207954 0.258887 -0.943256
vn 0.067416 -0.208388 -0.975720
vn 0.993314 0.038792 -0.108727
vn 0.444161 0.245653 0.861612
vn 0.453316 -0.231739 0.860698
vn 0.207954 0.258887 -0.943256
vn 0.067416 -0.208388 -0.975720
vn 0.993314 0.038792 -0.108727
vn 0.444161 0.245653 0.861612
vn 0.453316 -0.231739 0.860698
vn 0.454442 -0.412721 0.789395
vn 0.886107 -0.281505 0.368196
vn -0.893296 0.090473 0.440270
vn -0.509480 -0.146294 0.847955
vn 0.908171 0.019937 0.418125
vn 0.454442 -0.412721 0.789395
vn 0.886107 -0.281505 0.368196
vn -0.893296 0.090473 0.440270
vn -0.509480 -0.146294 0.847955
vn 0.908171 0.019937 0.418125
vn 0.951658 -0.143681 -0.271484
vn 0.616919 -0.351984 -0.703931
vn 0.631918 -0.230621 -0.739929
vn -0.241869 -0.015402 0.970187
vn 0.613154 -0.188784 0.767074
vn 0.951658 -0.143681 -0.271484
vn 0.616919 -0.351984 -0.703931
vn 0.631918 -0.230621 -0.739929
vn -0.241869 -0.015402 0.970187
vn 0.613154 -0.188784 0.767074
vn 0.958948 -0.279699 0.046763
vn 0.877301 -0.404868 -0.257731
vn 0.246652 -0.319210 -0.915023
vn -0.725991 -0.282550 0.626980
vn 0.422825 -0.285610 0.860027
vn 0.958948 -0.279699 0.046763
vn 0.877301 -0.404868 -0.257731
vn 0.246652 -0.319210 -0.915023
vn -0.725991 -0.282550 0.626980
vn 0.422825 -0.285610 0.860027
vn 0.951817 -0.295649 0.081461
vn 0.376068 -0.228787 -0.897903
vn -0.839189 -0.229545 -0.493022
vn -0.518103 -0.146182 0.842734
vn 0.507067 -0.237527 0.828531
vn 0.951817 -0.295649 0.081461
vn 0.376068 -0.228787 -0.897903
vn -0.839189 -0.229545 -0.493022
vn -0.518103 -0.146182 0.842734
vn 0.507067 -0.237527 0.828531
vn 0.974654 -0.214361 -0.064030
vn 0.061284 -0.075964 -0.995226
vn -0.886510 -0.200450 -0.417037
vn -0.339698 -0.026356 0.940165
vn 0.671147 -0.107130 0.733542
vn 0.974654 -0.214361 -0.064030
vn 0.061284 -0.075964 -0.995226
vn -0.886510 -0.200450 -0.417037
vn -0.339698 -0.026356 0.940165
vn 0.671147 -0.107130 0.733542
vn -0.671147 0.107130 -0.733542
vn -0.974654 0.214361 0.064030
vn -0.061284 0.075964 0.995226
vn 0.886510 0.200450 0.417037
vn 0.339698 0.026356 -0.940165
vn 0.000000 0.000000 0.000000
vn 0.000000 0.000000 0.000000
vn 0.000000 0.000000 0.000000
vn 0.000000 0.000000 0.000000
vn 0.000000 0.000000 0.000000
vn -0.713415 -0.034451 0.699894
vn 0.801831 -0.371169 -0.468295
vn -0.813726 -0.287364 -0.505244
vn 0.468584 0.104035 -0.877272
vn 0.358433 0.365727 -0.858935
vn -0.713415 -0.034451 0.699894
vn 0.801831 -0.371169 -0.468295
vn -0.813726 -0.287364 -0.505244
vn 0.468584 0.104035 -0.877272
vn 0.358433 0.365727 -0.858935
vn -0.207954 -0.258887 0.943256
vn -0.067416 0.208388 0.975720
vn -0.993314 -0.038792 0.108727
vn -0.444161 -0.245653 -0.861612
vn -0.453316 0.231739 -0.860698
vn -0.207954 -0.258887 0.943256
vn -0.067416 0.208388 0.975720
vn -0.993314 -0.038792 0.108727
vn -0.444161 -0.245653 -0.861612
vn -0.453316 0.231739 -0.860698
vn -0.454442 0.412721 -0.789395
vn -0.886107 0.281505 -0.368196
vn 0.893296 -0.090473 -0.440270
vn 0.509480 0.146294 -0.847955
vn -0.908171 -0.019937 -0.418125
vn -0.454442 0.412721 -0.789395
vn -0.886107 0.281505 -0.368196
vn 0.893296 -0.090473 -0.440270
vn 0.509480 0.146294 -0.847955
vn -0.908171 -0.019937 -0.418125
vn -0.951658 0.143681 0.271484
vn -0.616919 0.351984 0.703931
vn -0.631918 0.230621 0.739929
vn 0.241869 0.015402 -0.970187
vn -0.613154 0.188784 -0.767074
vn -0.951658 0.143681 0.271484
vn -0.616919 0.351984 0.703931
vn -0.631918 0.230621 0.739929
vn 0.241869 0.015402 -0.970187
vn -0.613154 0.188784 -0.767074
vn -0.958948 0.279699 -0.046763
vn -0.877301 0.404868 0.257731
vn -0.246652 0.319210 0.915023
vn 0.725991 0.282550 -0.626980
vn -0.422825 0.285610 -0.860027
vn -0.958948 0.279699 -0.046763
vn -0.877301 0.404868 0.257731
vn -0.246652 0.319210 0.915023
vn 0.725991 0.282550 -0.626980
vn -0.422825 0.285610 -0.860027
vn -0.951817 0.295649 -0.081461
vn -0.376068 0.228787 0.897903
vn 0.839189 0.229545 0.493022
vn 0.518103 0.146182 -0.842734
vn -0.507067 0.237527 -0.828531
vn -0.951817 0.295649 -0.081461
vn -0.376068 0.228787 0.897903
vn 0.839189 0.229545 0.493022
vn 0.518103 0.146182 -0.842734
vn -0.507067 0.237527 -0.828531
vn -0.974654 0.214361 0.064030
vn -0.061284 0.075964 0.995226
vn 0.886510 0.200450 0.417037
vn 0.339698 0.026356 -0.940165
vn -0.671147 0.107130 -0.733542
vn -0.974654 0.214361 0.064030
vn -0.061284 0.075964 0.995226
vn 0.886510 0.200450 0.417037
vn 0.339698 0.026356 -0.940165
vn -0.671147 0.107130 -0.733542

#indices
f 1/1/1 6/6/6 2/2/2
f 2/2/2 7/7/7 3/3/3
f 3/3/3 8/8/8 4/4/4
f 4/4/4 9/9/9 5/5/5
f 5/5/5 10/10/10 1/1/1
f 11/11/11 16/16/16 2/2/2
f 12/12/12 17/17/17 3/3/3
f 13/13/13 18/18/18 4/4/4
f 14/14/14 19/19/19 5/5/5
f 15/15/15 20/20/20 1/1/1
f 21/21/21 26/26/26 2/2/2
f 22/22/22 27/27/27 3/3/3
f 23/23/23 28/28/28 4/4/4
f 24/24/24 29/29/29 5/5/5
f 25/25/25 30/30/30 1/1/1
f 31/31/31 36/36/36 2/2/2
f 32/32/32 37/37/37 3/3/3
f 33/33/33 38/38/38 4/4/4
f 34/34/34 39/39/39 5/5/5
f 35/35/35 40/40/40 1/1/1
f 41/41/41 46/46/46 2/2/2
f 42/42/42 47/47/47 3/3/3
f 43/43/43 48/48/48 4/4/4
f 44/44/44 49/49/49 5/5/5
f 45/45/45 50/50/50 1/1/1
f 51/51/51 56/56/56 2/2/2
f 52/52/52 57/57/57 3/3/3
f 53/53/53 58/58/58 4/4/4
f 54/54/54 59/59/59 5/5/5
f 55/55/55 60/60/60 1/1/1
f 61/61/61 66/66/66 2/2/2
f 62/62/62 67/67/67 3/3/3
f 63/63/63 68/68/68 4/4/4
f 64/64/64 69/69/69 5/5/5
f 65/65/65 70/70/70 1/1/1
f 71/71/71 76/76/76 2/2/2
f 72/72/72 77/77/77 3/3/3
f 73/73/73 78/78/78 4/4/4
f 74/74/74 79/79/79 5/5/5
f 75/75/75 80/80/80 1/1/1
f 81/81/81 82/82/82 86/86/86
f 82/82/82 83/83/83 87/87/87
f 83/83/83 84/84/84 88/88/88
f 84/84/84 85/85/85 89/89/89
f 85/85/85 81/81/81 90/90/90
f 91/91/91 82/82/82 96/96/96
f 92/92/92 83/83/83 97/97/97
f 93/93/93 84/84/84 98/98/98
f 94/94/94 85/85/85 99/99/99
f 95/95/95 81/81/81 100/100/100
f 101/101/101 82/82/82 106/106/106
f 102/102/102 83/83/83 107/107/107
f 103/103/103 84/84/84 108/108/108
f 104/104/104 85/85/85 109/109/109
f 105/105/105 81/81/81 110/110/110
f 111/111/111 82/82/82 116/116/116
f 112/112/112 83/83/83 117/117/117
f 113/113/113 84/84/84 118/118/118
f 114/114/114 85/85/85 119/119/119
f 115/115/115 81/81/81 120/120/120
f 121/121/121 82/82/82 126/126/126
f 122/122/122 83/83/83 127/127/127
f 123/123/123 84/84/84 128/128/128
f 124/124/124 85/85/85 129/129/129
f 125/125/125 81/81/81 130/130/130
f 131/131/131 82/82/82 136/136/136
f 132/132/132 83/83/83 137/137/137
f 133/133/133 84/84/84 138/138/138
f 134/134/134 85/85/85 139/139/139
f 135/135/135 81/81/81 140/140/140
f 141/141/141 82/82/82 146/146/146
f 142/142/142 83/83/83 147/147/147
f 143/143/143 84/84/84 148/148/148
f 144/144/144 85/85/85 149/149/149
f 145/145/145 81/81/81 150/150/150
f 151/151/151 82/82/82 156/156/156
f 152/152/152 83/83/83 157/157/157
f 153/153/153 84/84/84 158/158/158
f 154/154/154 85/85/85 159/159/159
f 155/155/155 81/81/81 160/160/160